<mxfile host="65bd71144e">
    <diagram id="cosGYz1K6BSecwOGasku" name="Page-2">
        <mxGraphModel dx="1514" dy="1588" grid="1" gridSize="10" guides="1" tooltips="1" connect="1" arrows="1" fold="1" page="1" pageScale="1" pageWidth="827" pageHeight="1169" math="0" shadow="0">
            <root>
                <mxCell id="0"/>
                <mxCell id="1" parent="0"/>
                <mxCell id="QT_vuB4-57dClmDdkFVs-10" style="edgeStyle=orthogonalEdgeStyle;rounded=0;orthogonalLoop=1;jettySize=auto;html=1;" parent="1" source="QT_vuB4-57dClmDdkFVs-3" target="QT_vuB4-57dClmDdkFVs-7" edge="1">
                    <mxGeometry relative="1" as="geometry"/>
                </mxCell>
                <mxCell id="QT_vuB4-57dClmDdkFVs-21" style="edgeStyle=orthogonalEdgeStyle;rounded=0;orthogonalLoop=1;jettySize=auto;html=1;" parent="1" source="QT_vuB4-57dClmDdkFVs-3" target="QT_vuB4-57dClmDdkFVs-15" edge="1">
                    <mxGeometry relative="1" as="geometry"/>
                </mxCell>
                <mxCell id="QT_vuB4-57dClmDdkFVs-3" value="User&lt;br&gt;Service" style="rounded=1;whiteSpace=wrap;html=1;" parent="1" vertex="1">
                    <mxGeometry x="380" y="-10" width="120" height="60" as="geometry"/>
                </mxCell>
                <mxCell id="QT_vuB4-57dClmDdkFVs-29" style="edgeStyle=orthogonalEdgeStyle;rounded=0;orthogonalLoop=1;jettySize=auto;html=1;" parent="1" source="QT_vuB4-57dClmDdkFVs-6" target="QT_vuB4-57dClmDdkFVs-28" edge="1">
                    <mxGeometry relative="1" as="geometry"/>
                </mxCell>
                <mxCell id="QT_vuB4-57dClmDdkFVs-6" value="Products&lt;br&gt;Service" style="rounded=1;whiteSpace=wrap;html=1;" parent="1" vertex="1">
                    <mxGeometry x="250" y="360" width="120" height="60" as="geometry"/>
                </mxCell>
                <mxCell id="QT_vuB4-57dClmDdkFVs-12" style="edgeStyle=orthogonalEdgeStyle;rounded=0;orthogonalLoop=1;jettySize=auto;html=1;entryX=1;entryY=0.5;entryDx=0;entryDy=0;" parent="1" source="QT_vuB4-57dClmDdkFVs-7" target="QT_vuB4-57dClmDdkFVs-6" edge="1">
                    <mxGeometry relative="1" as="geometry"/>
                </mxCell>
                <mxCell id="QT_vuB4-57dClmDdkFVs-7" value="FE" style="shape=process;whiteSpace=wrap;html=1;backgroundOutline=1;" parent="1" vertex="1">
                    <mxGeometry x="440" y="240" width="120" height="60" as="geometry"/>
                </mxCell>
                <mxCell id="QT_vuB4-57dClmDdkFVs-14" style="edgeStyle=orthogonalEdgeStyle;rounded=0;orthogonalLoop=1;jettySize=auto;html=1;entryX=0.5;entryY=0;entryDx=0;entryDy=0;" parent="1" source="QT_vuB4-57dClmDdkFVs-8" target="QT_vuB4-57dClmDdkFVs-13" edge="1">
                    <mxGeometry relative="1" as="geometry"/>
                </mxCell>
                <mxCell id="QT_vuB4-57dClmDdkFVs-18" style="edgeStyle=orthogonalEdgeStyle;rounded=0;orthogonalLoop=1;jettySize=auto;html=1;entryX=0;entryY=0.5;entryDx=0;entryDy=0;" parent="1" source="QT_vuB4-57dClmDdkFVs-8" target="QT_vuB4-57dClmDdkFVs-6" edge="1">
                    <mxGeometry relative="1" as="geometry">
                        <Array as="points">
                            <mxPoint x="50" y="160"/>
                            <mxPoint x="50" y="390"/>
                        </Array>
                    </mxGeometry>
                </mxCell>
                <mxCell id="QT_vuB4-57dClmDdkFVs-8" value="FE" style="shape=process;whiteSpace=wrap;html=1;backgroundOutline=1;" parent="1" vertex="1">
                    <mxGeometry x="60" y="130" width="120" height="60" as="geometry"/>
                </mxCell>
                <mxCell id="QT_vuB4-57dClmDdkFVs-26" style="edgeStyle=orthogonalEdgeStyle;rounded=0;orthogonalLoop=1;jettySize=auto;html=1;" parent="1" source="QT_vuB4-57dClmDdkFVs-13" target="QT_vuB4-57dClmDdkFVs-25" edge="1">
                    <mxGeometry relative="1" as="geometry"/>
                </mxCell>
                <mxCell id="QT_vuB4-57dClmDdkFVs-13" value="Cart&lt;br&gt;Service" style="rounded=1;whiteSpace=wrap;html=1;" parent="1" vertex="1">
                    <mxGeometry x="70" y="260" width="120" height="60" as="geometry"/>
                </mxCell>
                <mxCell id="QT_vuB4-57dClmDdkFVs-15" value="MySQL" style="shape=cylinder3;whiteSpace=wrap;html=1;boundedLbl=1;backgroundOutline=1;size=15;" parent="1" vertex="1">
                    <mxGeometry x="220" y="-20" width="60" height="80" as="geometry"/>
                </mxCell>
                <mxCell id="QT_vuB4-57dClmDdkFVs-25" value="Postgress" style="shape=cylinder3;whiteSpace=wrap;html=1;boundedLbl=1;backgroundOutline=1;size=15;" parent="1" vertex="1">
                    <mxGeometry x="240" y="240" width="60" height="80" as="geometry"/>
                </mxCell>
                <mxCell id="QT_vuB4-57dClmDdkFVs-28" value="MongoDD" style="shape=cylinder3;whiteSpace=wrap;html=1;boundedLbl=1;backgroundOutline=1;size=15;" parent="1" vertex="1">
                    <mxGeometry x="320" y="220" width="60" height="80" as="geometry"/>
                </mxCell>
                <mxCell id="QT_vuB4-57dClmDdkFVs-33" value="Update Price" style="curved=1;endArrow=classic;html=1;rounded=0;exitX=0.052;exitY=0.988;exitDx=0;exitDy=0;exitPerimeter=0;entryX=1;entryY=0.25;entryDx=0;entryDy=0;" parent="1" source="QT_vuB4-57dClmDdkFVs-3" target="QT_vuB4-57dClmDdkFVs-13" edge="1">
                    <mxGeometry x="0.1999" y="-24" width="50" height="50" relative="1" as="geometry">
                        <mxPoint x="428.8000000000002" y="110.00000000000013" as="sourcePoint"/>
                        <mxPoint x="200" y="274.14" as="targetPoint"/>
                        <Array as="points">
                            <mxPoint x="330" y="140"/>
                            <mxPoint x="340" y="170"/>
                            <mxPoint x="310" y="234.14"/>
                            <mxPoint x="260" y="184.14"/>
                        </Array>
                        <mxPoint as="offset"/>
                    </mxGeometry>
                </mxCell>
                <mxCell id="QT_vuB4-57dClmDdkFVs-35" style="edgeStyle=orthogonalEdgeStyle;rounded=0;orthogonalLoop=1;jettySize=auto;html=1;entryX=0;entryY=0.5;entryDx=0;entryDy=0;" parent="1" source="QT_vuB4-57dClmDdkFVs-34" target="QT_vuB4-57dClmDdkFVs-8" edge="1">
                    <mxGeometry relative="1" as="geometry"/>
                </mxCell>
                <mxCell id="QT_vuB4-57dClmDdkFVs-34" value="Customer" style="shape=umlActor;verticalLabelPosition=bottom;verticalAlign=top;html=1;outlineConnect=0;" parent="1" vertex="1">
                    <mxGeometry x="-30" y="50" width="30" height="60" as="geometry"/>
                </mxCell>
                <mxCell id="QT_vuB4-57dClmDdkFVs-37" style="edgeStyle=orthogonalEdgeStyle;rounded=0;orthogonalLoop=1;jettySize=auto;html=1;entryX=1;entryY=0.5;entryDx=0;entryDy=0;" parent="1" source="QT_vuB4-57dClmDdkFVs-36" target="QT_vuB4-57dClmDdkFVs-7" edge="1">
                    <mxGeometry relative="1" as="geometry"/>
                </mxCell>
                <mxCell id="QT_vuB4-57dClmDdkFVs-36" value="Employee" style="shape=umlActor;verticalLabelPosition=bottom;verticalAlign=top;html=1;outlineConnect=0;" parent="1" vertex="1">
                    <mxGeometry x="650" y="230" width="30" height="60" as="geometry"/>
                </mxCell>
                <mxCell id="8LW8b7FURJvuyeTK6BTZ-2" value="&lt;h1&gt;User Service&lt;/h1&gt;&lt;p&gt;Id&lt;/p&gt;&lt;p&gt;name&lt;/p&gt;&lt;p&gt;userType&lt;/p&gt;&lt;p&gt;(addUser, EditUser, verification)&lt;/p&gt;&lt;p&gt;&lt;br&gt;&lt;/p&gt;" style="text;html=1;strokeColor=none;fillColor=none;spacing=5;spacingTop=-20;whiteSpace=wrap;overflow=hidden;rounded=0;" parent="1" vertex="1">
                    <mxGeometry x="510" y="-50" width="190" height="160" as="geometry"/>
                </mxCell>
                <mxCell id="8LW8b7FURJvuyeTK6BTZ-4" value="&lt;h1&gt;Cart Service&lt;/h1&gt;&lt;p&gt;id&lt;/p&gt;&lt;p&gt;productId&lt;/p&gt;&lt;p&gt;productName&lt;/p&gt;&lt;p&gt;price&lt;/p&gt;&lt;p&gt;addItem, editItem, deleteItem, listItem)&lt;/p&gt;" style="text;html=1;strokeColor=none;fillColor=none;spacing=5;spacingTop=-20;whiteSpace=wrap;overflow=hidden;rounded=0;" parent="1" vertex="1">
                    <mxGeometry x="-200" y="200" width="190" height="200" as="geometry"/>
                </mxCell>
                <mxCell id="8LW8b7FURJvuyeTK6BTZ-5" value="&lt;h1&gt;Product Service&lt;/h1&gt;&lt;p&gt;Id&lt;/p&gt;&lt;p&gt;name&lt;/p&gt;&lt;p&gt;price&lt;/p&gt;&lt;p&gt;(addProduct,listProduct, editProduct,delete)&lt;/p&gt;" style="text;html=1;strokeColor=none;fillColor=none;spacing=5;spacingTop=-20;whiteSpace=wrap;overflow=hidden;rounded=0;" parent="1" vertex="1">
                    <mxGeometry x="250" y="430" width="190" height="190" as="geometry"/>
                </mxCell>
                <mxCell id="8LW8b7FURJvuyeTK6BTZ-10" style="edgeStyle=orthogonalEdgeStyle;rounded=0;orthogonalLoop=1;jettySize=auto;html=1;" parent="1" source="8LW8b7FURJvuyeTK6BTZ-6" target="8LW8b7FURJvuyeTK6BTZ-9" edge="1">
                    <mxGeometry relative="1" as="geometry"/>
                </mxCell>
                <mxCell id="8LW8b7FURJvuyeTK6BTZ-6" value="A&lt;br&gt;192.168.1.2" style="rounded=0;whiteSpace=wrap;html=1;" parent="1" vertex="1">
                    <mxGeometry x="110" y="930" width="120" height="60" as="geometry"/>
                </mxCell>
                <mxCell id="8LW8b7FURJvuyeTK6BTZ-7" value="N" style="rounded=0;whiteSpace=wrap;html=1;" parent="1" vertex="1">
                    <mxGeometry x="450" y="920" width="120" height="60" as="geometry"/>
                </mxCell>
                <mxCell id="8LW8b7FURJvuyeTK6BTZ-8" value="V" style="rounded=1;whiteSpace=wrap;html=1;" parent="1" vertex="1">
                    <mxGeometry x="460" y="1070" width="120" height="60" as="geometry"/>
                </mxCell>
                <mxCell id="8LW8b7FURJvuyeTK6BTZ-9" value="Service&amp;nbsp;&lt;br&gt;Discovery" style="ellipse;whiteSpace=wrap;html=1;aspect=fixed;" parent="1" vertex="1">
                    <mxGeometry x="280" y="1000" width="80" height="80" as="geometry"/>
                </mxCell>
                <mxCell id="8LW8b7FURJvuyeTK6BTZ-11" style="edgeStyle=orthogonalEdgeStyle;rounded=0;orthogonalLoop=1;jettySize=auto;html=1;entryX=0.618;entryY=0.046;entryDx=0;entryDy=0;entryPerimeter=0;" parent="1" source="8LW8b7FURJvuyeTK6BTZ-7" target="8LW8b7FURJvuyeTK6BTZ-9" edge="1">
                    <mxGeometry relative="1" as="geometry"/>
                </mxCell>
                <mxCell id="8LW8b7FURJvuyeTK6BTZ-12" style="edgeStyle=orthogonalEdgeStyle;rounded=0;orthogonalLoop=1;jettySize=auto;html=1;entryX=0.696;entryY=1.004;entryDx=0;entryDy=0;entryPerimeter=0;" parent="1" source="8LW8b7FURJvuyeTK6BTZ-8" target="8LW8b7FURJvuyeTK6BTZ-9" edge="1">
                    <mxGeometry relative="1" as="geometry"/>
                </mxCell>
                <mxCell id="8LW8b7FURJvuyeTK6BTZ-13" value="A&lt;br&gt;192.168.1.3" style="rounded=0;whiteSpace=wrap;html=1;" parent="1" vertex="1">
                    <mxGeometry x="110" y="1020" width="120" height="60" as="geometry"/>
                </mxCell>
                <mxCell id="8LW8b7FURJvuyeTK6BTZ-14" value="A&lt;br&gt;192.168.1.3" style="rounded=0;whiteSpace=wrap;html=1;" parent="1" vertex="1">
                    <mxGeometry x="110" y="1100" width="120" height="60" as="geometry"/>
                </mxCell>
                <mxCell id="8LW8b7FURJvuyeTK6BTZ-15" style="edgeStyle=orthogonalEdgeStyle;rounded=0;orthogonalLoop=1;jettySize=auto;html=1;entryX=-0.032;entryY=0.568;entryDx=0;entryDy=0;entryPerimeter=0;" parent="1" source="8LW8b7FURJvuyeTK6BTZ-13" target="8LW8b7FURJvuyeTK6BTZ-9" edge="1">
                    <mxGeometry relative="1" as="geometry"/>
                </mxCell>
                <mxCell id="8LW8b7FURJvuyeTK6BTZ-16" style="edgeStyle=orthogonalEdgeStyle;rounded=0;orthogonalLoop=1;jettySize=auto;html=1;entryX=-0.025;entryY=0.661;entryDx=0;entryDy=0;entryPerimeter=0;" parent="1" source="8LW8b7FURJvuyeTK6BTZ-14" target="8LW8b7FURJvuyeTK6BTZ-9" edge="1">
                    <mxGeometry relative="1" as="geometry"/>
                </mxCell>
                <mxCell id="8LW8b7FURJvuyeTK6BTZ-17" value="UserEntity" style="rounded=0;whiteSpace=wrap;html=1;" parent="1" vertex="1">
                    <mxGeometry x="480" y="640" width="100" height="40" as="geometry"/>
                </mxCell>
                <mxCell id="8LW8b7FURJvuyeTK6BTZ-24" style="edgeStyle=orthogonalEdgeStyle;rounded=0;orthogonalLoop=1;jettySize=auto;html=1;entryX=0;entryY=0.5;entryDx=0;entryDy=0;" parent="1" source="8LW8b7FURJvuyeTK6BTZ-18" target="8LW8b7FURJvuyeTK6BTZ-17" edge="1">
                    <mxGeometry relative="1" as="geometry"/>
                </mxCell>
                <mxCell id="8LW8b7FURJvuyeTK6BTZ-30" style="edgeStyle=orthogonalEdgeStyle;rounded=0;orthogonalLoop=1;jettySize=auto;html=1;entryX=1;entryY=0.5;entryDx=0;entryDy=0;" parent="1" source="8LW8b7FURJvuyeTK6BTZ-18" target="8LW8b7FURJvuyeTK6BTZ-22" edge="1">
                    <mxGeometry relative="1" as="geometry"/>
                </mxCell>
                <mxCell id="8LW8b7FURJvuyeTK6BTZ-31" style="edgeStyle=orthogonalEdgeStyle;rounded=0;orthogonalLoop=1;jettySize=auto;html=1;entryX=0.5;entryY=0;entryDx=0;entryDy=0;" parent="1" source="8LW8b7FURJvuyeTK6BTZ-18" target="8LW8b7FURJvuyeTK6BTZ-29" edge="1">
                    <mxGeometry relative="1" as="geometry"/>
                </mxCell>
                <mxCell id="8LW8b7FURJvuyeTK6BTZ-18" value="UserService" style="rounded=1;whiteSpace=wrap;html=1;" parent="1" vertex="1">
                    <mxGeometry x="300" y="680" width="110" height="40" as="geometry"/>
                </mxCell>
                <mxCell id="8LW8b7FURJvuyeTK6BTZ-20" value="UserRepository" style="rounded=1;whiteSpace=wrap;html=1;" parent="1" vertex="1">
                    <mxGeometry x="475" y="720" width="110" height="40" as="geometry"/>
                </mxCell>
                <mxCell id="8LW8b7FURJvuyeTK6BTZ-21" value="DB" style="shape=cylinder3;whiteSpace=wrap;html=1;boundedLbl=1;backgroundOutline=1;size=15;" parent="1" vertex="1">
                    <mxGeometry x="680" y="640" width="60" height="80" as="geometry"/>
                </mxCell>
                <mxCell id="8LW8b7FURJvuyeTK6BTZ-22" value="UserController" style="rounded=1;whiteSpace=wrap;html=1;" parent="1" vertex="1">
                    <mxGeometry x="115" y="680" width="110" height="40" as="geometry"/>
                </mxCell>
                <mxCell id="8LW8b7FURJvuyeTK6BTZ-25" style="edgeStyle=orthogonalEdgeStyle;rounded=0;orthogonalLoop=1;jettySize=auto;html=1;entryX=0.025;entryY=0.596;entryDx=0;entryDy=0;entryPerimeter=0;" parent="1" source="8LW8b7FURJvuyeTK6BTZ-18" target="8LW8b7FURJvuyeTK6BTZ-20" edge="1">
                    <mxGeometry relative="1" as="geometry"/>
                </mxCell>
                <mxCell id="8LW8b7FURJvuyeTK6BTZ-27" style="edgeStyle=orthogonalEdgeStyle;rounded=0;orthogonalLoop=1;jettySize=auto;html=1;entryX=0;entryY=0.5;entryDx=0;entryDy=0;entryPerimeter=0;" parent="1" source="8LW8b7FURJvuyeTK6BTZ-20" target="8LW8b7FURJvuyeTK6BTZ-21" edge="1">
                    <mxGeometry relative="1" as="geometry"/>
                </mxCell>
                <mxCell id="8LW8b7FURJvuyeTK6BTZ-29" value="UserModel" style="rounded=0;whiteSpace=wrap;html=1;" parent="1" vertex="1">
                    <mxGeometry x="305" y="760" width="100" height="40" as="geometry"/>
                </mxCell>
            </root>
        </mxGraphModel>
    </diagram>
</mxfile>